<?xml version="1.0" encoding="UTF-8" standalone="no"?>
<svg
   xmlns:dc="http://purl.org/dc/elements/1.1/"
   xmlns:cc="http://creativecommons.org/ns#"
   xmlns:rdf="http://www.w3.org/1999/02/22-rdf-syntax-ns#"
   xmlns:svg="http://www.w3.org/2000/svg"
   xmlns="http://www.w3.org/2000/svg"
   xmlns:sodipodi="http://sodipodi.sourceforge.net/DTD/sodipodi-0.dtd"
   xmlns:inkscape="http://www.inkscape.org/namespaces/inkscape"
   id="Layer_2"
   data-name="Layer 2"
   viewBox="0 0 1600 900"
   version="1.1"
   sodipodi:docname="couple.svg"
   inkscape:version="0.92.5 (2060ec1f9f, 2020-04-08)"
   width="1200pt"
   height="675pt">
  <metadata
     id="metadata1367">
    <rdf:RDF>
      <cc:Work
         rdf:about="">
        <dc:format>image/svg+xml</dc:format>
        <dc:type
           rdf:resource="http://purl.org/dc/dcmitype/StillImage" />
        <dc:title>wfh_9</dc:title>
      </cc:Work>
    </rdf:RDF>
  </metadata>
  <sodipodi:namedview
     pagecolor="#ffffff"
     bordercolor="#666666"
     borderopacity="1"
     objecttolerance="10"
     gridtolerance="10"
     guidetolerance="10"
     inkscape:pageopacity="0"
     inkscape:pageshadow="2"
     inkscape:window-width="1366"
     inkscape:window-height="705"
     id="namedview1365"
     showgrid="false"
     inkscape:zoom="0.34648232"
     inkscape:cx="932.92906"
     inkscape:cy="518.36735"
     inkscape:window-x="1272"
     inkscape:window-y="-8"
     inkscape:window-maximized="1"
     inkscape:current-layer="Layer_2"
     units="pt" />
  <defs
     id="defs1094">
    <style
       id="style1092">.cls-1{fill:#f5ebdd;}.cls-2{fill:#a15842;}.cls-12,.cls-13,.cls-14,.cls-15,.cls-17,.cls-18,.cls-20,.cls-3,.cls-5,.cls-9{fill:none;}.cls-12,.cls-3,.cls-9{stroke:#a15842;}.cls-12,.cls-13,.cls-15,.cls-20,.cls-3,.cls-5,.cls-9{stroke-miterlimit:10;}.cls-13,.cls-15,.cls-18,.cls-20,.cls-3,.cls-5,.cls-9{stroke-width:4px;}.cls-4{fill:#ffbe21;}.cls-5{stroke:#f5ebdd;}.cls-12,.cls-13,.cls-15,.cls-17,.cls-18,.cls-20,.cls-5,.cls-9{stroke-linecap:round;}.cls-6{fill:#ff7235;}.cls-7{fill:#30242a;}.cls-8{fill:#ffb7d5;}.cls-10{fill:#eaa58b;}.cls-11{fill:#3ec1f3;}.cls-12,.cls-17{stroke-width:8px;}.cls-13{stroke:#4756df;}.cls-15,.cls-17{stroke:#30242a;}.cls-16{fill:#4856df;}.cls-17,.cls-18{stroke-linejoin:round;}.cls-18{stroke:#000;}.cls-19{fill:#fff;}.cls-20{stroke:#4856df;}.cls-21{fill:#4756df;}</style>
  </defs>
  <title
     id="title1096">wfh_9</title>
  <rect
     style="fill:#f5ebdd"
     class="cls-1"
     x="247.09"
     y="249.56"
     width="419.28"
     height="419.28"
     rx="29.33"
     id="rect1098" />
  <circle
     style="fill:#a15842"
     class="cls-2"
     cx="588.04999"
     cy="226.89999"
     r="10.12"
     id="circle1100" />
  <line
     style="fill:none;stroke:#a15842;stroke-width:4px;stroke-miterlimit:10"
     class="cls-3"
     x1="588.04999"
     y1="191.72"
     x2="588.04999"
     y2="223.53"
     id="line1102" />
  <rect
     style="fill:#a15842"
     class="cls-2"
     x="616.26001"
     y="202.32999"
     width="15.4"
     height="133.00999"
     id="rect1104" />
  <path
     style="fill:#ffbe21"
     inkscape:connector-curvature="0"
     class="cls-4"
     d="m 669.8,92.66 c -3.08,6.09 -16,27.35 -45.84,27.35 -29.84,0 -42.75,-21.26 -45.84,-27.35 l -28.85,109.67 h 149.39 z"
     id="path1106" />
  <line
     style="fill:none;stroke:#f5ebdd;stroke-width:4px;stroke-linecap:round;stroke-miterlimit:10"
     class="cls-5"
     x1="657.34998"
     y1="94.789993"
     x2="676.75"
     y2="202.35001"
     id="line1108" />
  <line
     style="fill:none;stroke:#f5ebdd;stroke-width:4px;stroke-linecap:round;stroke-miterlimit:10"
     class="cls-5"
     x1="590.58002"
     y1="96.190002"
     x2="571.42999"
     y2="202.35001"
     id="line1110" />
  <line
     style="fill:none;stroke:#f5ebdd;stroke-width:4px;stroke-linecap:round;stroke-miterlimit:10"
     class="cls-5"
     x1="611.38"
     y1="95.5"
     x2="603.96002"
     y2="202.31"
     id="line1112" />
  <line
     style="fill:none;stroke:#f5ebdd;stroke-width:4px;stroke-linecap:round;stroke-miterlimit:10"
     class="cls-5"
     x1="636.53998"
     y1="95.5"
     x2="643.97998"
     y2="202.51999"
     id="line1114" />
  <path
     style="fill:#ff7235"
     inkscape:connector-curvature="0"
     class="cls-6"
     d="m 624,120 c 29.85,0 42.76,-21.26 45.84,-27.35 v -0.21 h -91.66 l -0.06,0.21 c 3.09,6.1 16,27.35 45.88,27.35 z"
     id="path1116" />
  <rect
     style="fill:#f5ebdd"
     class="cls-1"
     x="820.58002"
     y="44.25"
     width="419.28"
     height="419.28"
     rx="29.33"
     id="rect1118" />
  <path
     style="fill:#30242a"
     inkscape:connector-curvature="0"
     class="cls-7"
     d="m 623.47,856.78 v 0 a 11.4,11.4 0 0 1 -11.32,-10 l -8.44,-70.91 h 39.52 l -8.44,70.91 a 11.39,11.39 0 0 1 -11.32,10 z"
     id="path1120" />
  <path
     style="fill:#30242a"
     inkscape:connector-curvature="0"
     class="cls-7"
     d="m 1066.84,856.78 v 0 a 11.38,11.38 0 0 1 -11.31,-10 l -8.44,-70.91 h 39.51 l -8.44,70.91 a 11.39,11.39 0 0 1 -11.32,10 z"
     id="path1122" />
  <path
     style="fill:#ffb7d5"
     inkscape:connector-curvature="0"
     class="cls-8"
     d="M 391.59,482.81 H 569 v 294 H 310.7 V 563.69 a 80.89,80.89 0 0 1 80.89,-80.88 z"
     id="path1124" />
  <path
     style="fill:#ffb7d5"
     inkscape:connector-curvature="0"
     class="cls-8"
     d="m 590.14,335.34 h 611.24 a 80.89,80.89 0 0 1 80.89,80.89 v 360.55 h -773 V 416.22 a 80.89,80.89 0 0 1 80.89,-80.89 z"
     id="path1126" />
  <line
     style="fill:none;stroke:#a15842;stroke-width:4px;stroke-linecap:round;stroke-miterlimit:10"
     class="cls-9"
     x1="509.25"
     y1="526.13"
     x2="509.25"
     y2="776.78003"
     id="line1128" />
  <path
     style="fill:#ffb7d5"
     inkscape:connector-curvature="0"
     class="cls-8"
     d="m 590.14,600.4 h 611.24 a 80.89,80.89 0 0 1 80.89,80.89 v 95.5 h -773 v -95.5 a 80.89,80.89 0 0 1 80.87,-80.89 z"
     id="path1130" />
  <path
     style="fill:none;stroke:#a15842;stroke-width:4px;stroke-linecap:round;stroke-miterlimit:10"
     inkscape:connector-curvature="0"
     class="cls-9"
     d="M 963.84,600.4 H 587.22 a 78,78 0 0 0 -78,78 v 98.42"
     id="path1132" />
  <line
     style="fill:none;stroke:#a15842;stroke-width:4px;stroke-miterlimit:10"
     class="cls-3"
     x1="1022.03"
     y1="601.63"
     x2="1022.03"
     y2="776.78003"
     id="line1134" />
  <line
     style="fill:none;stroke:#a15842;stroke-width:4px;stroke-miterlimit:10"
     class="cls-3"
     x1="1282.27"
     y1="480.88"
     x2="1101.92"
     y2="480.88"
     id="line1136" />
  <path
     style="fill:#eaa58b"
     inkscape:connector-curvature="0"
     class="cls-10"
     d="m 455.28,450 c 23.13,2.89 30.34,-6.93 33.73,-15.42 3.85,-9.63 1.37,-17.91 -1.63,-28.67 0,0 7.64,-4.16 6.45,-8.93 -1,-3.85 -9.69,-4.28 -9.69,-4.28 q -0.51,-2.58 -0.91,-5.35 c -1.93,-13.5 -4.82,-21.21 -4.82,-21.21 -6.75,1.93 -15.42,1 -18.31,0 a 57.67,57.67 0 0 1 -20.24,27 c 0,0 -21.21,-23.13 -34.7,-5.78 -11,14.15 4.82,31.8 15.42,33.73 -6.3,13.29 -23.25,21 -32.07,24.22 0.54,4.18 1.05,8.06 1.5,11.44 h 66 z"
     id="path1138" />
  <path
     style="fill:#eaa58b"
     inkscape:connector-curvature="0"
     class="cls-10"
     d="m 684.83,533.92 a 375.44,375.44 0 0 0 8.52,-37.62 l -23.13,-62.65 c 0,0 9.64,-26 1,-29.88 -8.64,-3.88 -27.99,21.23 -35.7,41.45 -3.33,8.74 -12.43,28.83 -21.68,48.82 z"
     id="path1140" />
  <path
     style="fill:#3ec1f3"
     inkscape:connector-curvature="0"
     class="cls-11"
     d="m 589.25,546.42 c 0,0 -55.9,-47.23 -80.1,-64.59 -24.2,-17.36 -51.94,-14.44 -51.94,-14.44 L 456,456.78 h -66 c 1,7.53 1.65,12.53 1.65,12.53 L 342.51,644.74 489,633.17 l -3.85,-54 c 0,0 79,66 124.34,59.76 40.89,-5.66 64.12,-64.7 75.33,-105 l -71,-39.88 c -12.13,26.26 -24.57,52.37 -24.57,52.37 z"
     id="path1142" />
  <path
     style="fill:#30242a"
     inkscape:connector-curvature="0"
     class="cls-7"
     d="m 420.58,421.12 c -10.6,-1.93 -26.43,-19.58 -15.42,-33.73 13.49,-17.35 34.7,5.78 34.7,5.78 a 57.67,57.67 0 0 0 20.24,-27 c 2.89,1 11.56,1.93 18.31,0 0,0 14.46,-4.82 13.49,-16.38 -1.29,-15.52 -25.06,-8.68 -25.06,-8.68 0,0 -26,-19.28 -54,-6.75 -29.84,13.43 -32.74,40.5 -30.84,58.81 1.1,10.51 4.11,34 6.48,52.17 8.85,-3.23 25.8,-10.93 32.1,-24.22 z"
     id="path1144" />
  <path
     style="fill:none;stroke:#a15842;stroke-width:8px;stroke-linecap:round;stroke-miterlimit:10"
     inkscape:connector-curvature="0"
     class="cls-12"
     d="m 688.66,508.35 c -4.41,1.82 -8.28,2.35 -10,1.36 -4.32,-2.46 -5,-7.61 0.13,-14.85 0,0 -12.19,4.75 -15.95,-1.43 -3.76,-6.18 1.89,-11.87 1.89,-11.87 0,0 -8.63,2.38 -10.74,-5.3 -2.11,-7.68 5,-11.7 5,-11.7 0,0 -4.86,-1.81 -5,-6.88 -0.19,-7.37 11.82,-13.35 15.28,-14.92"
     id="path1146" />
  <line
     style="fill:none;stroke:#4756df;stroke-width:4px;stroke-linecap:round;stroke-miterlimit:10"
     class="cls-13"
     x1="487.28"
     y1="578.96002"
     x2="483.70999"
     y2="537.27002"
     id="line1148" />
  <path
     style="fill:none;stroke:#a15842;stroke-width:4px;stroke-linecap:round;stroke-miterlimit:10"
     inkscape:connector-curvature="0"
     class="cls-9"
     d="m 454.37,451.78 a 61,61 0 0 1 -16,-6.08"
     id="path1150" />
  <line
     style="fill:none;stroke:#4756df;stroke-width:4px;stroke-linecap:round;stroke-miterlimit:10"
     class="cls-13"
     x1="348.76999"
     y1="631.71997"
     x2="373.60999"
     y2="565.66998"
     id="line1152" />
  <path
     style="fill:none;stroke:#a15842;stroke-width:4px;stroke-linecap:round;stroke-miterlimit:10"
     inkscape:connector-curvature="0"
     class="cls-9"
     d="m 479.52,415.79 c -1.59,1 -7.57,1.76 -10,-2.83"
     id="path1154" />
  <circle
     style="fill:#a15842"
     class="cls-2"
     cx="470.70001"
     cy="391.23999"
     r="2.8900001"
     id="circle1156" />
  <line
     style="fill:none;stroke:#a15842;stroke-width:4px;stroke-linecap:round;stroke-miterlimit:10"
     class="cls-9"
     x1="417.69"
     y1="399.91998"
     x2="428.29001"
     y2="405.70001"
     id="line1158" />
  <path
     style="fill:#eaa58b"
     inkscape:connector-curvature="0"
     class="cls-10"
     d="m 688.1,817.54 73.83,-21.85 c -5.63,-19.46 -16.4,-56.35 -23.33,-77.84 l -92.13,38.46 a 422,422 0 0 0 41.63,61.23 z"
     id="path1160" />
  <path
     style="fill:none"
     inkscape:connector-curvature="0"
     class="cls-14"
     d="m 447.57,676.54 26.73,12.56 -24.56,-14.84 c -1.42,1.48 -2.17,2.28 -2.17,2.28 z"
     id="path1162" />
  <polygon
     style="fill:none"
     class="cls-14"
     points="551.52,885.37 574.8,896.3 579.65,891.86 "
     id="polygon1164"
     transform="translate(0,-160)" />
  <path
     style="fill:#ffbe21"
     inkscape:connector-curvature="0"
     class="cls-4"
     d="m 689.5,819.19 a 128,128 0 0 0 -4,25.07 H 816.11 A 29.28,29.28 0 0 0 803.47,830 l -37.83,-21.42 c 0,0 -1.44,-5 -3.71,-12.9 l -73.83,21.86 c 0.9,1.08 1.4,1.65 1.4,1.65 z"
     id="path1166" />
  <path
     style="fill:#ff7235"
     inkscape:connector-curvature="0"
     class="cls-6"
     d="m 685.64,856.78 h 133 l -0.41,-4.12 a 29.14,29.14 0 0 0 -2.13,-8.4 H 685.49 a 77.71,77.71 0 0 0 0.15,12.52 z"
     id="path1168" />
  <path
     style="fill:#a15842"
     inkscape:connector-curvature="0"
     class="cls-2"
     d="m 620.1,694.86 c 6.38,22 16.15,43.11 26.37,61.45 l 92.13,-38.46 c -1,-3.23 -2,-6.11 -2.84,-8.54 C 706.93,626 689.5,559 647.09,552.21 c -66.75,-10.62 -180.3,104.34 -197.35,122 l 24.56,14.89 77.22,36.27 28.13,6.49 z"
     id="path1170" />
  <path
     style="fill:none;stroke:#30242a;stroke-width:4px;stroke-linecap:round;stroke-miterlimit:10"
     inkscape:connector-curvature="0"
     class="cls-15"
     d="m 618,694 a 157,157 0 0 1 -3.2,-32.4"
     id="path1172" />
  <path
     style="fill:#30242a"
     inkscape:connector-curvature="0"
     class="cls-7"
     d="m 975.76,466.42 c 0,0 -92.37,24.37 -133,47.23 -46.27,26 -49.16,60.72 -78.07,148.43 -9.31,28.23 -15.89,50.91 -22,68.73 l 79.64,37.6 0.15,-0.3 c 0,0 39,-5.73 42.41,-54 2.57,-36 3.8,-62.71 16.38,-89.64 L 1096.21,466.4 Z"
     id="path1174" />
  <path
     style="fill:#4856df"
     inkscape:connector-curvature="0"
     class="cls-16"
     d="m 699.75,783.76 c -27.85,4.22 -39.47,9.64 -44,22.27 l 52.61,24.49 c 0,0 28.21,-8 43.4,-4.09 v 0.05 a 169.27,169.27 0 0 1 29.67,9.93 443.14,443.14 0 0 0 41,-68 l -79.64,-37.6 c -11.42,33.35 -20.94,49.6 -43.04,52.95 z"
     id="path1176" />
  <path
     style="fill:#30242a"
     inkscape:connector-curvature="0"
     class="cls-7"
     d="m 739.09,844.84 25.66,11.94 a 228.29,228.29 0 0 0 16.62,-20.37 169.27,169.27 0 0 0 -29.67,-9.93 z"
     id="path1178" />
  <line
     style="fill:none;stroke:#f5ebdd;stroke-width:4px;stroke-linecap:round;stroke-miterlimit:10"
     class="cls-5"
     x1="725.91998"
     y1="762.97998"
     x2="743.78003"
     y2="770.78998"
     id="line1180" />
  <line
     style="fill:none;stroke:#f5ebdd;stroke-width:4px;stroke-linecap:round;stroke-miterlimit:10"
     class="cls-5"
     x1="715.77002"
     y1="775.37"
     x2="733.63"
     y2="783.19"
     id="line1182" />
  <circle
     style="fill:#ffbe21"
     class="cls-4"
     cx="1069.25"
     cy="241.84"
     r="10.12"
     id="circle1184" />
  <circle
     style="fill:#30242a"
     class="cls-7"
     cx="1104.92"
     cy="137.75"
     r="40.48"
     id="circle1186" />
  <path
     style="fill:#3ec1f3"
     inkscape:connector-curvature="0"
     class="cls-11"
     d="m 1077,164.74 c 2.48,1.14 -18.31,-48.2 -28.91,-40.49 -10.02,7.26 16.34,34.75 28.91,40.49 z"
     id="path1188" />
  <path
     style="fill:#3ec1f3"
     inkscape:connector-curvature="0"
     class="cls-11"
     d="m 1078.11,167.75 c 2.27,2.71 55.29,-15.84 48,-26.55 -7.11,-10.29 -50.26,23.8 -48,26.55 z"
     id="path1190" />
  <path
     style="fill:#30242a"
     inkscape:connector-curvature="0"
     class="cls-7"
     d="m 1177.21,361.36 4.64,-0.72 v -1.36 a 39.88,39.88 0 0 1 -4.64,2.08 z"
     id="path1192" />
  <path
     style="fill:#a15842"
     inkscape:connector-curvature="0"
     class="cls-2"
     d="m 1050.94,350.76 c 45.12,0.82 67.89,-45.12 73.67,-58.83 -2,-0.37 -4,-0.69 -6.2,-0.93 -26,-2.89 -30.84,-3.85 -39.52,-15.42 -8.68,-11.57 -9.64,-34.7 -9.64,-34.7 0,0 22.48,-5 19.28,-23.13 -2.89,-16.39 -22.17,-16.39 -32.77,-4.82 0,0 -16.39,-3.86 -31.81,-21.21 0,0 -11.28,2.65 -19,1.36 -2,12.62 -1.88,26.74 -4.16,38.16 -3.86,19.28 -1,31.81 10.6,38.56 11.6,6.75 25.06,1.92 25.06,1.92 l -2.89,17.35 c 0,0 -16.83,1.95 -30.86,6.36 2.79,21.78 12.82,54.69 48.24,55.33 z"
     id="path1194" />
  <polygon
     style="fill:#a15842"
     class="cls-2"
     points="1113.59,626.42 1118.84,622.86 1109.74,626.42 "
     id="polygon1196"
     transform="translate(0,-160)" />
  <path
     style="fill:#a15842"
     inkscape:connector-curvature="0"
     class="cls-2"
     d="m 905.4,354.62 c 0,0 -50.53,-69 -62.65,-82.9 -13.5,-15.42 -31.81,-31.8 -37.59,-26 -5.78,5.8 10.6,25.06 10.6,25.06 l -2.89,62.65 c 0,0 33.2,89.53 69.4,101.21 18.1,5.84 52.48,-9.56 76.77,-22.6 l -37.57,-68 c -9.55,6.26 -16.07,10.58 -16.07,10.58 z"
     id="path1198" />
  <path
     style="fill:#ff7235"
     inkscape:connector-curvature="0"
     class="cls-6"
     d="m 1177.21,361.36 c 0,0 -3.86,-21.2 -8.68,-32.77 -7.21,-17.32 -19.11,-32 -43.92,-36.66 -5.78,13.71 -28.55,59.65 -73.67,58.83 -35.42,-0.64 -45.45,-33.55 -48.21,-55.33 a 70.8,70.8 0 0 0 -8.66,3.28 c -10.17,4.75 -49.92,30.49 -72.6,45.33 L 959,412 c 15.79,-8.47 27.32,-16 27.32,-16 l -10.6,70.36 h 134 l 9.1,-3.56 63,-42.74 a 397,397 0 0 0 -4.61,-58.7 z"
     id="path1200" />
  <path
     style="fill:#30242a"
     inkscape:connector-curvature="0"
     class="cls-7"
     d="m 1205.16,312.21 c -6.91,-32.81 -42.41,-31.81 -42.41,-31.81 a 48.82,48.82 0 0 0 -12.53,-44.34 c -19.28,-20.24 -46.27,-11.57 -46.27,-11.57 1,-11.56 2.89,-41.44 -22.17,-59.75 -25.06,-18.31 -56.86,-8.68 -68.43,5.78 -4.71,5.89 -7,13.87 -8.37,22.56 7.69,1.29 19,-1.36 19,-1.36 15.42,17.35 31.81,21.21 31.81,21.21 10.6,-11.57 29.88,-11.57 32.77,4.82 3.2,18.13 -19.28,23.13 -19.28,23.13 0,0 1,23.13 9.64,34.7 8.64,11.57 13.5,12.53 39.52,15.42 2.16,0.24 4.22,0.56 6.2,0.93 24.81,4.65 36.71,19.34 43.92,36.66 4.82,11.57 8.68,32.77 8.68,32.77 a 39.88,39.88 0 0 0 4.59,-2.08 c 9.34,-4.86 29.29,-18.77 23.33,-47.07 z"
     id="path1202" />
  <line
     style="fill:none;stroke:#30242a;stroke-width:4px;stroke-linecap:round;stroke-miterlimit:10"
     class="cls-15"
     x1="1067.33"
     y1="224.48999"
     x2="1075.04"
     y2="219.67999"
     id="line1204" />
  <path
     style="fill:none;stroke:#30242a;stroke-width:4px;stroke-linecap:round;stroke-miterlimit:10"
     inkscape:connector-curvature="0"
     class="cls-15"
     d="m 1018,247.12 c 1.6,1 7.57,1.76 10,-2.83"
     id="path1206" />
  <circle
     style="fill:#30242a"
     class="cls-7"
     cx="1033.72"
     cy="222.54001"
     r="2.8900001"
     id="circle1208" />
  <circle
     style="fill:#30242a"
     class="cls-7"
     cx="1011.42"
     cy="218.70999"
     r="2.8900001"
     id="circle1210" />
  <path
     style="fill:none;stroke:#30242a;stroke-width:4px;stroke-linecap:round;stroke-miterlimit:10"
     inkscape:connector-curvature="0"
     class="cls-15"
     d="m 1019.13,226.42 c 0,0 -2.63,6.59 -2,7.91 a 4.93,4.93 0 0 0 2,2"
     id="path1212" />
  <path
     style="fill:none;stroke:#30242a;stroke-width:8px;stroke-linecap:round;stroke-linejoin:round"
     inkscape:connector-curvature="0"
     class="cls-17"
     d="m 822,346.44 a 7.4,7.4 0 0 0 4.35,-1.46 c 3.41,-3.41 2.72,-8.4 -3.94,-13.84 0,0 12.62,1.31 14.54,-5.44 1.92,-6.75 -4.81,-10.6 -4.81,-10.6 0,0 8.67,0 8.67,-7.71 0,-7.71 -7.71,-9.64 -7.71,-9.64 0,0 4.08,-2.95 2.89,-7.71 -1.93,-7.71 -18.31,-9.64 -18.31,-9.64 l -2.26,-2.76"
     id="path1214" />
  <path
     style="fill:none;stroke:#30242a;stroke-width:4px;stroke-linecap:round;stroke-miterlimit:10"
     inkscape:connector-curvature="0"
     class="cls-15"
     d="m 1037,273.6 a 111.52,111.52 0 0 0 11.88,-5.55"
     id="path1216" />
  <line
     style="fill:none;stroke:#30242a;stroke-width:4px;stroke-linecap:round;stroke-miterlimit:10"
     class="cls-15"
     x1="907.79999"
     y1="354.40002"
     x2="917.92999"
     y2="368.10999"
     id="line1218" />
  <line
     style="fill:none;stroke:#a15842;stroke-width:4px;stroke-linecap:round;stroke-miterlimit:10"
     class="cls-9"
     x1="989.62"
     y1="364.23999"
     x2="984.70001"
     y2="395.12"
     id="line1220" />
  <line
     style="fill:none;stroke:#a15842;stroke-width:4px;stroke-linecap:round;stroke-miterlimit:10"
     class="cls-9"
     x1="1108.77"
     y1="426.90002"
     x2="1108.29"
     y2="377.27002"
     id="line1222" />
  <path
     style="fill:none;stroke:#000000;stroke-width:4px;stroke-linecap:round;stroke-linejoin:round"
     inkscape:connector-curvature="0"
     class="cls-18"
     d="m 1164.21,281.75 a 88.6,88.6 0 0 1 -5.57,15.14"
     id="path1224" />
  <line
     style="fill:none;stroke:#000000;stroke-width:4px;stroke-linecap:round;stroke-linejoin:round"
     class="cls-18"
     x1="1105.72"
     y1="225.60001"
     x2="1102.99"
     y2="239.92001"
     id="line1226" />
  <path
     style="fill:#30242a"
     inkscape:connector-curvature="0"
     class="cls-7"
     d="m 1047.09,467.39 c 0,0 -82.9,26 -129.16,48.19 -46,22 -40.48,73.25 -31.81,162.89 3.07,31.69 6.66,56.5 8.48,76.15 h 88 c 4.52,-2.52 31.2,-19.65 15.29,-66.51 -11.62,-34.21 -21.65,-56.87 -21.65,-86.59 h 73.6 a 80.44,80.44 0 0 0 80.41,-78.14 l 1.61,-56 z"
     id="path1228" />
  <path
     style="fill:#4856df"
     inkscape:connector-curvature="0"
     class="cls-16"
     d="m 877.82,818 c -23.44,15.62 -31.67,25.44 -30.45,38.81 l 58,-0.08 c 0,0 22.17,-19.19 37.59,-22.08 a 164.44,164.44 0 0 1 31,-2.89 c 3.53,-17.29 7.33,-43.24 8,-76.78 l 0.64,-0.33 h -88 c 3.07,32.98 1.12,51.4 -16.78,63.35 z"
     id="path1230" />
  <path
     style="fill:#30242a"
     inkscape:connector-curvature="0"
     class="cls-7"
     d="m 939.33,856.64 h 28.31 c 0,0 3.08,-8.61 6.4,-24.87 a 164.44,164.44 0 0 0 -31,2.89 z"
     id="path1232" />
  <line
     style="fill:none;stroke:#000000;stroke-width:4px;stroke-linecap:round;stroke-linejoin:round"
     class="cls-18"
     x1="975.34998"
     y1="603.28998"
     x2="952.63"
     y2="603.28998"
     id="line1234" />
  <line
     style="fill:none;stroke:#f5ebdd;stroke-width:4px;stroke-linecap:round;stroke-miterlimit:10"
     class="cls-5"
     x1="892.83002"
     y1="792.69"
     x2="914.56"
     y2="792.69"
     id="line1236" />
  <line
     style="fill:none;stroke:#f5ebdd;stroke-width:4px;stroke-linecap:round;stroke-miterlimit:10"
     class="cls-5"
     x1="888"
     y1="808.10999"
     x2="909.72998"
     y2="808.10999"
     id="line1238" />
  <circle
     style="fill:#ffffff"
     class="cls-19"
     cx="594.56"
     cy="597.02002"
     r="42.889999"
     id="circle1240" />
  <rect
     style="fill:#4856df"
     class="cls-16"
     x="582.51001"
     y="571.96002"
     width="24.1"
     height="38.549999"
     rx="12.05"
     id="rect1242" />
  <line
     style="fill:none;stroke:#4856df;stroke-width:4px;stroke-linecap:round;stroke-miterlimit:10"
     class="cls-20"
     x1="594.56"
     y1="606.65997"
     x2="594.56"
     y2="620.15997"
     id="line1244" />
  <line
     style="fill:none;stroke:#4856df;stroke-width:4px;stroke-linecap:round;stroke-miterlimit:10"
     class="cls-20"
     x1="587.65002"
     y1="620.15997"
     x2="601.46002"
     y2="620.15997"
     id="line1246" />
  <circle
     style="fill:#ffffff"
     class="cls-19"
     cx="291.89999"
     cy="294.37"
     r="15.9"
     id="circle1248" />
  <circle
     style="fill:#ffffff"
     class="cls-19"
     cx="340.10001"
     cy="294.37"
     r="15.9"
     id="circle1250" />
  <circle
     style="fill:#ffffff"
     class="cls-19"
     cx="388.29001"
     cy="294.37"
     r="15.9"
     id="circle1252" />
  <path
     style="fill:#f5ebdd"
     inkscape:connector-curvature="0"
     class="cls-1"
     d="m 637,249.56 a 29.32,29.32 0 0 1 29.32,29.32 V 639.51 A 29.32,29.32 0 0 1 637,668.83 H 276.41 A 29.32,29.32 0 0 1 247.09,639.51 V 278.88 a 29.32,29.32 0 0 1 29.32,-29.32 H 637 m 0,-4 H 276.41 a 33.36,33.36 0 0 0 -33.32,33.32 v 360.63 a 33.36,33.36 0 0 0 33.32,33.32 H 637 a 33.36,33.36 0 0 0 33.32,-33.32 V 278.88 A 33.36,33.36 0 0 0 637,245.56 Z"
     id="path1254" />
  <path
     style="fill:#ffb7d5"
     inkscape:connector-curvature="0"
     class="cls-8"
     d="m 1104.84,482.81 h 177.43 v 294 H 1024 V 563.69 a 80.89,80.89 0 0 1 80.84,-80.88 z"
     id="path1256" />
  <circle
     style="fill:#ffffff"
     class="cls-19"
     cx="865.40002"
     cy="89.070007"
     r="15.9"
     id="circle1290" />
  <circle
     style="fill:#ffffff"
     class="cls-19"
     cx="913.59003"
     cy="89.070007"
     r="15.9"
     id="circle1292" />
  <circle
     style="fill:#ffffff"
     class="cls-19"
     cx="961.78003"
     cy="89.070007"
     r="15.9"
     id="circle1294" />
  <path
     style="fill:#f5ebdd"
     inkscape:connector-curvature="0"
     class="cls-1"
     d="m 1210.53,44.25 a 29.33,29.33 0 0 1 29.33,29.33 v 360.63 a 29.33,29.33 0 0 1 -29.33,29.32 H 849.91 A 29.33,29.33 0 0 1 820.58,434.21 V 73.58 a 29.33,29.33 0 0 1 29.33,-29.33 h 360.62 m 0,-4 H 849.91 a 33.37,33.37 0 0 0 -33.33,33.33 v 360.63 a 33.36,33.36 0 0 0 33.33,33.32 h 360.62 a 33.36,33.36 0 0 0 33.33,-33.32 V 73.58 a 33.37,33.37 0 0 0 -33.33,-33.33 z"
     id="path1296" />
  <path
     style="fill:#a15842"
     inkscape:connector-curvature="0"
     class="cls-2"
     d="m 816.72,270.76 c 0,0 -21.2,0 -24.09,8.67 -2.89,8.67 3.85,15.43 3.85,15.43 0,0 -11.56,5.78 -3.85,16.38 0,0 -5.79,9.64 3.85,15.42 0,0 -5.78,6.75 3.86,13.5 9.64,6.75 23.13,7.71 26,4.82 3.41,-3.41 2.72,-8.4 -3.94,-13.84 0,0 12.62,1.31 14.54,-5.44 1.92,-6.75 -4.81,-10.6 -4.81,-10.6 0,0 8.67,0 8.67,-7.71 0,-7.71 -7.71,-9.64 -7.71,-9.64 0,0 4.08,-2.95 2.89,-7.71 -1.42,-5.67 -10.64,-8.21 -15.43,-9.16 a 33.32,33.32 0 0 0 -3.85,-0.48 z"
     id="path1298" />
  <path
     style="fill:none;stroke:#30242a;stroke-width:4px;stroke-linecap:round;stroke-miterlimit:10"
     inkscape:connector-curvature="0"
     class="cls-15"
     d="M 797.59,327.47 A 139.18,139.18 0 0 0 827,333"
     id="path1300" />
  <path
     style="fill:none;stroke:#30242a;stroke-width:4px;stroke-linecap:round;stroke-miterlimit:10"
     inkscape:connector-curvature="0"
     class="cls-15"
     d="m 794,312 a 153.66,153.66 0 0 0 42.68,4.39"
     id="path1302" />
  <path
     style="fill:none;stroke:#30242a;stroke-width:4px;stroke-linecap:round;stroke-miterlimit:10"
     inkscape:connector-curvature="0"
     class="cls-15"
     d="m 797.05,296 a 118.34,118.34 0 0 0 40.42,2.58"
     id="path1304" />
  <path
     style="fill:#a15842"
     inkscape:connector-curvature="0"
     class="cls-2"
     d="m 1106.84,453.93 c 0,0 -78.07,20.25 -105.06,40.49 -12.19,9.14 -27,26 -31.8,33.73 -4.8,7.73 -25.06,36.63 -15.42,37.59 9.64,0.96 20.24,-16.38 20.24,-16.38 0,0 -5.8,21.2 -4.8,27.95 1,6.75 10.6,4.82 10.6,4.82 7.71,7.71 14.46,-1.93 14.46,-1.93 13.49,8.67 28,-37.59 28,-37.59 a 91,91 0 0 0 21.69,-14.94 c 0,0 86.26,-0.48 113.25,-24.58 19.16,-17.1 23.89,-50.83 23.88,-82.93 h -75 z"
     id="path1306" />
  <line
     style="fill:none;stroke:#30242a;stroke-width:4px;stroke-linecap:round;stroke-miterlimit:10"
     class="cls-15"
     x1="1107.5601"
     y1="451.59003"
     x2="1125.16"
     y2="447.19"
     id="line1308" />
  <path
     style="fill:none;stroke:#30242a;stroke-width:4px;stroke-linecap:round;stroke-miterlimit:10"
     inkscape:connector-curvature="0"
     class="cls-15"
     d="m 971,557 c 5,-17 9,-27 12,-33.19"
     id="path1310" />
  <path
     style="fill:none;stroke:#30242a;stroke-width:4px;stroke-linecap:round;stroke-miterlimit:10"
     inkscape:connector-curvature="0"
     class="cls-15"
     d="m 996.48,529.6 c -8.68,18.7 -14,41.26 -16.48,52.4"
     id="path1312" />
  <path
     style="fill:none;stroke:#30242a;stroke-width:4px;stroke-linecap:round;stroke-miterlimit:10"
     inkscape:connector-curvature="0"
     class="cls-15"
     d="m 1010,536.34 c -5.67,13 -10.82,32.56 -14,44.66"
     id="path1314" />
  <path
     style="fill:none;stroke:#000000;stroke-width:4px;stroke-linecap:round;stroke-linejoin:round"
     inkscape:connector-curvature="0"
     class="cls-18"
     d="m 987.48,487.67 c -23.49,8.36 -49.71,18.4 -69.55,27.91 -35.56,17 -40.33,51.51 -36.66,107.68"
     id="path1316" />
  <path
     style="fill:#eaa58b"
     inkscape:connector-curvature="0"
     class="cls-10"
     d="m 422.57,764.29 c -39.43,8 -67.53,18.28 -67.53,18.28 l -37.94,-16.81 0.08,-0.83 -88.41,80.29 1.93,2.31 a 25.72,25.72 0 0 0 19.75,9.25 H 427.9 Z"
     id="path1318" />
  <path
     style="fill:#a15842"
     inkscape:connector-curvature="0"
     class="cls-2"
     d="m 355,782.57 c 0,0 28.1,-10.33 67.53,-18.28 l 5.33,92.49 h 126.65 c 34.24,0 64.25,-24 70.63,-57.64 4.25,-22.45 -2.39,-46.49 -26.25,-62.84 C 560.51,710 478.41,675.58 457.21,668.83 l -116.63,27 c -22.17,24.1 -17.35,63.61 -17.35,63.61 z"
     id="path1320" />
  <path
     style="fill:none;stroke:#30242a;stroke-width:4px;stroke-linecap:round;stroke-miterlimit:10"
     inkscape:connector-curvature="0"
     class="cls-15"
     d="m 422.86,765.54 c 26.22,-5.07 55.51,-9.46 96.51,-7.55"
     id="path1322" />
  <path
     style="fill:none;stroke:#30242a;stroke-width:4px;stroke-linecap:round;stroke-miterlimit:10"
     inkscape:connector-curvature="0"
     class="cls-15"
     d="m 459.21,667.83 c 18.55,5.91 83.73,33 125.44,57.3"
     id="path1324" />
  <path
     style="fill:#ffbe21"
     inkscape:connector-curvature="0"
     class="cls-4"
     d="m 336,765.63 -97.29,88.29 a 25.61,25.61 0 0 0 11.77,2.86 H 321.3 L 355,782.57 a 72.07,72.07 0 0 0 -19,-16.94 z"
     id="path1326" />
  <path
     style="fill:#ff7235"
     inkscape:connector-curvature="0"
     class="cls-6"
     d="m 323.23,759.43 -94.46,85.79 1.93,2.31 a 25.61,25.61 0 0 0 8,6.39 L 336,765.63 a 64.25,64.25 0 0 0 -12.77,-6.2 z"
     id="path1328" />
  <line
     style="fill:none;stroke:#30242a;stroke-width:4px;stroke-linecap:round;stroke-miterlimit:10"
     class="cls-15"
     x1="301.54001"
     y1="839.91998"
     x2="301.54001"
     y2="857"
     id="line1330" />
  <line
     style="fill:none;stroke:#30242a;stroke-width:4px;stroke-linecap:round;stroke-miterlimit:10"
     class="cls-15"
     x1="286.12"
     y1="839.91998"
     x2="286.12"
     y2="857"
     id="line1332" />
  <path
     style="fill:none;stroke:#4756df;stroke-width:4px;stroke-linecap:round;stroke-miterlimit:10"
     inkscape:connector-curvature="0"
     class="cls-13"
     d="m 392.05,467.69 c 3,-0.28 9.26,-0.79 15.52,-0.79"
     id="path1334" />
  <path
     style="fill:#eaa58b"
     inkscape:connector-curvature="0"
     class="cls-10"
     d="m 670.22,433.65 c 0,0 18.8,-6.23 24,1.61 5.2,7.84 0.38,16.4 0.38,16.4 0,0 13.09,2.59 8.32,15.25 0,0 8.39,8 0.39,16.4 0,0 7.6,5.13 -0.15,14.48 -7.75,9.35 -20.9,14 -24.57,11.92 -4.32,-2.46 -5,-7.61 0.13,-14.85 0,0 -12.19,4.75 -15.95,-1.43 -3.76,-6.18 1.89,-11.87 1.89,-11.87 0,0 -8.63,2.38 -10.74,-5.3 -2.11,-7.68 5,-11.7 5,-11.7 0,0 -4.86,-1.81 -5,-6.88 -0.19,-7.37 12.74,-13.79 16.2,-15.35 z"
     id="path1336" />
  <path
     style="fill:none;stroke:#a15842;stroke-width:4px;stroke-linecap:round;stroke-miterlimit:10"
     inkscape:connector-curvature="0"
     class="cls-9"
     d="m 656,465.91 c 7.42,-1.3 26.27,-5.32 38.75,-14"
     id="path1338" />
  <path
     style="fill:none;stroke:#a15842;stroke-width:4px;stroke-linecap:round;stroke-miterlimit:10"
     inkscape:connector-curvature="0"
     class="cls-9"
     d="M 659,483.92 A 106,106 0 0 0 703,468"
     id="path1340" />
  <path
     style="fill:none;stroke:#a15842;stroke-width:4px;stroke-linecap:round;stroke-miterlimit:10"
     inkscape:connector-curvature="0"
     class="cls-9"
     d="m 673,498.59 c 2.67,-0.94 20.09,-7.19 30.66,-13.89"
     id="path1342" />
  <path
     style="fill:#3ec1f3"
     inkscape:connector-curvature="0"
     class="cls-11"
     d="m 406.17,622 c -17.45,2.13 -36.92,5.28 -58.84,9.2 l 30.84,-82.89 13.49,-79 c 0,0 -44.33,4.82 -64.57,28 -18.67,21.33 -77.11,120.48 -54,172.53 23.11,52.05 92.55,33.69 108.91,28.87 8.93,-2.63 22.46,-8.69 36.35,-13.2 z"
     id="path1344" />
  <path
     style="fill:#eaa58b"
     inkscape:connector-curvature="0"
     class="cls-10"
     d="m 451.42,680.4 c 21.21,2.89 45.3,13.49 49.16,0 0,0 13,-0.33 8.9,-12.69 0,0 6.52,-0.81 7.48,-5.63 1.93,-9.63 -21.2,-18.31 -21.2,-18.31 0,0 18.31,2.89 22.17,-1 4.91,-4.92 0.13,-12.75 -29.78,-20 -21.72,-5.26 -48,-4.94 -82,-0.78 l 12.21,63.47 c 11.64,-3.7 23.42,-6.38 33.06,-5.06 z"
     id="path1346" />
  <path
     style="fill:none;stroke:#a15842;stroke-width:4px;stroke-linecap:round;stroke-miterlimit:10"
     inkscape:connector-curvature="0"
     class="cls-9"
     d="m 504,645 c -10.27,-3.94 -29.77,-10.49 -43.9,-12.79"
     id="path1348" />
  <path
     style="fill:none;stroke:#a15842;stroke-width:4px;stroke-linecap:round;stroke-miterlimit:10"
     inkscape:connector-curvature="0"
     class="cls-9"
     d="m 509.88,667.31 c -13.4,-6 -39.28,-17.12 -53.16,-19.2"
     id="path1350" />
  <path
     style="fill:none;stroke:#a15842;stroke-width:4px;stroke-linecap:round;stroke-miterlimit:10"
     inkscape:connector-curvature="0"
     class="cls-9"
     d="m 499.49,681.4 c -10.33,-5.24 -31,-15.08 -45.66,-17.87"
     id="path1352" />
  <path
     style="fill:none;stroke:#4756df;stroke-width:4px;stroke-linecap:round;stroke-miterlimit:10"
     inkscape:connector-curvature="0"
     class="cls-13"
     d="m 406.34,623.44 c -9.42,1.22 -39.55,5.38 -84.56,14.07"
     id="path1354" />
  <circle
     style="fill:#ffffff"
     class="cls-19"
     cx="1168.05"
     cy="391.71997"
     r="42.889999"
     id="circle1356" />
  <rect
     style="fill:#4856df"
     class="cls-16"
     x="1156"
     y="366.65997"
     width="24.1"
     height="38.549999"
     rx="12.05"
     id="rect1358" />
  <line
     style="fill:none;stroke:#4856df;stroke-width:4px;stroke-linecap:round;stroke-miterlimit:10"
     class="cls-20"
     x1="1168.05"
     y1="401.35999"
     x2="1168.05"
     y2="414.85999"
     id="line1360" />
  <line
     style="fill:none;stroke:#4856df;stroke-width:4px;stroke-linecap:round;stroke-miterlimit:10"
     class="cls-20"
     x1="1161.14"
     y1="414.85999"
     x2="1174.96"
     y2="414.85999"
     id="line1362" />
  <flowRoot
     xml:space="preserve"
     id="flowRoot1369"
     style="font-style:normal;font-weight:normal;font-size:40px;line-height:1.25;font-family:sans-serif;letter-spacing:0px;word-spacing:0px;fill:#000000;fill-opacity:1;stroke:none"
     transform="translate(0,-300)"><flowRegion
       id="flowRegion1371"><rect
         id="rect1373"
         width="532.65308"
         height="173.46939"
         x="79.591835"
         y="61.224491" /></flowRegion><flowPara
       id="flowPara1375" /></flowRoot>  <g
     id="g1252"
     transform="translate(-21.2,11.84)">
    <path
       id="path1258"
       d="m 1237.93,776.94 a 34.7,34.7 0 0 1 65.54,0 34.72,34.72 0 0 1 30.86,-23.23 86.59,86.59 0 0 0 -10.89,-15.27 l -12.6,-14.11 A 28.71,28.71 0 0 1 1307,691.6 l 10.7,-19.88 v 0 c -3,3 -20.36,19.28 -46.71,19.28 -26.35,0 -43.7,-16.25 -46.7,-19.28 v 0 L 1235,691.6 a 28.73,28.73 0 0 1 -3.86,32.73 l -12.6,14.11 a 86.41,86.41 0 0 0 -10.91,15.3 34.7,34.7 0 0 1 30.3,23.2 z"
       class="cls-21"
       inkscape:connector-curvature="0"
       style="fill:#4756df" />
    <path
       id="path1260"
       d="m 1336.24,797 a 34.72,34.72 0 0 0 -32.77,23.3 34.69,34.69 0 0 0 -65.54,0 34.71,34.71 0 0 0 -41.45,-22.2 86.33,86.33 0 0 0 24.82,58.66 h 99.28 a 86.29,86.29 0 0 0 24.81,-58.53 34.9,34.9 0 0 0 -9.15,-1.23 z"
       class="cls-21"
       inkscape:connector-curvature="0"
       style="fill:#4756df" />
    <path
       id="path1262"
       d="m 1270.94,691 c 26.35,0 43.7,-16.25 46.71,-19.28 h -93.41 c 3,3.03 20.36,19.28 46.7,19.28 z"
       class="cls-7"
       inkscape:connector-curvature="0"
       style="fill:#30242a" />
    <path
       id="path1264"
       d="m 1237.93,820.32 a 34.69,34.69 0 0 1 65.54,0 34.69,34.69 0 0 1 41.92,-22.07 86.35,86.35 0 0 0 -11.06,-44.54 34.72,34.72 0 0 0 -30.86,23.23 34.7,34.7 0 0 0 -65.54,0 34.7,34.7 0 0 0 -30.4,-23.2 86.48,86.48 0 0 0 -11,44.38 34.71,34.71 0 0 1 41.45,22.2 z"
       class="cls-11"
       inkscape:connector-curvature="0"
       style="fill:#3ec1f3" />
    <path
       id="path1266"
       d="m 1277.86,688.27 c 1.9,-11.66 10.57,-57.92 32.36,-83"
       class="cls-15"
       inkscape:connector-curvature="0"
       style="fill:none;stroke:#30242a;stroke-width:4px;stroke-linecap:round;stroke-miterlimit:10" />
    <path
       id="path1268"
       d="m 1267.79,688.6 c -0.14,-13.24 -1.5,-78.3 -14.44,-117.12"
       class="cls-15"
       inkscape:connector-curvature="0"
       style="fill:none;stroke:#30242a;stroke-width:4px;stroke-linecap:round;stroke-miterlimit:10" />
    <ellipse
       id="ellipse1270"
       transform="rotate(-23.75)"
       ry="8.5"
       rx="37.799999"
       cy="1113.7516"
       cx="953.91418"
       class="cls-7"
       style="fill:#30242a" />
    <ellipse
       id="ellipse1272"
       transform="rotate(-53.51)"
       ry="7.3000002"
       rx="20.91"
       cy="1370.1273"
       cx="366.08051"
       class="cls-7"
       style="fill:#30242a" />
    <ellipse
       id="ellipse1274"
       transform="rotate(-8.6)"
       ry="8.0600004"
       rx="45.610001"
       cy="817.05579"
       cx="1110.7916"
       class="cls-7"
       style="fill:#30242a" />
    <path
       id="path1276"
       d="m 1204.28,584.71 v 0.07 a 16.86,16.86 0 0 1 -13.76,30.64 v 0.07 c 20.88,9.38 40.9,10.09 44.72,1.59 3.82,-8.5 -10.08,-22.99 -30.96,-32.37 z"
       class="cls-6"
       inkscape:connector-curvature="0"
       style="fill:#ff7235" />
    <path
       id="path1278"
       d="m 1266,516.72 c -4.45,-1.15 -10.23,5.57 -14.45,16 -5.08,-12.63 -12.45,-21.08 -17.41,-19.44 -4.96,1.64 -5.86,12.81 -2.42,26 -9.58,-5.84 -18.23,-7.8 -21.11,-4.23 -3.68,4.56 3.41,16.38 15.84,26.41 a 70.73,70.73 0 0 0 11.37,7.57 16.85,16.85 0 0 1 26.73,-9.15 71.84,71.84 0 0 0 4.45,-12.46 c 4,-15.5 2.67,-29.23 -3,-30.7 z"
       class="cls-6"
       inkscape:connector-curvature="0"
       style="fill:#ff7235" />
    <path
       id="path1280"
       d="m 1362.9,586.89 c -1.37,-4.38 -10.13,-5.73 -21.19,-3.82 8,-11 11.32,-21.71 7.3,-25.06 -4.02,-3.35 -14,1.81 -23.34,11.69 -0.11,-11.22 -3,-19.59 -7.57,-20.15 -5.81,-0.71 -12.1,11.56 -14,27.41 a 70.93,70.93 0 0 0 -0.41,13.65 16.85,16.85 0 0 1 21.9,17.85 71.57,71.57 0 0 0 12.93,-2.81 c 15.19,-4.77 26.13,-13.17 24.38,-18.76 z"
       class="cls-6"
       inkscape:connector-curvature="0"
       style="fill:#ff7235" />
    <path
       id="path1282"
       d="m 1319.57,593.71 a 16.84,16.84 0 0 0 -15.93,-3.1 c 0.54,7.54 2.45,13.31 5.32,15.46 2.67,2.48 8.87,3.3 16.58,2.39 a 16.83,16.83 0 0 0 -5.97,-14.75 z"
       class="cls-7"
       inkscape:connector-curvature="0"
       style="fill:#30242a" />
    <path
       id="path1284"
       d="M 1248.88,557.11 A 16.82,16.82 0 0 0 1237.83,569 c 6.68,3.53 12.59,5 15.93,3.66 3.52,-1 7.49,-5.78 10.8,-12.81 a 16.83,16.83 0 0 0 -15.68,-2.74 z"
       class="cls-7"
       inkscape:connector-curvature="0"
       style="fill:#30242a" />
    <path
       id="path1286"
       d="m 1206.14,613 a 8.19,8.19 0 0 1 6.72,-14.87 16.85,16.85 0 0 0 -8.61,-13.37 l -13.76,30.64 a 16.82,16.82 0 0 0 15.65,-2.4 z"
       class="cls-1"
       inkscape:connector-curvature="0"
       style="fill:#f5ebdd" />
    <path
       id="path1288"
       d="m 1202.63,602.5 a 8.19,8.19 0 0 0 3.51,10.52 16.82,16.82 0 0 0 6.72,-14.87 8.19,8.19 0 0 0 -10.23,4.35 z"
       class="cls-16"
       inkscape:connector-curvature="0"
       style="fill:#4856df" />
  </g>
</svg>
