<?xml version="1.0" encoding="UTF-8" standalone="no"?>
<svg
   xmlns:dc="http://purl.org/dc/elements/1.1/"
   xmlns:cc="http://creativecommons.org/ns#"
   xmlns:rdf="http://www.w3.org/1999/02/22-rdf-syntax-ns#"
   xmlns:svg="http://www.w3.org/2000/svg"
   xmlns="http://www.w3.org/2000/svg"
   xmlns:sodipodi="http://sodipodi.sourceforge.net/DTD/sodipodi-0.dtd"
   xmlns:inkscape="http://www.inkscape.org/namespaces/inkscape"
   id="Layer_2"
   data-name="Layer 2"
   viewBox="0 0 200 370"
   version="1.1"
   sodipodi:docname="pot.svg"
   inkscape:version="0.92.5 (2060ec1f9f, 2020-04-08)"
   width="200"
   height="370">
  <metadata
     id="metadata1367">
    <rdf:RDF>
      <cc:Work
         rdf:about="">
        <dc:format>image/svg+xml</dc:format>
        <dc:type
           rdf:resource="http://purl.org/dc/dcmitype/StillImage" />
        <dc:title>wfh_9</dc:title>
      </cc:Work>
    </rdf:RDF>
  </metadata>
  <sodipodi:namedview
     pagecolor="#ffffff"
     bordercolor="#666666"
     borderopacity="1"
     objecttolerance="10"
     gridtolerance="10"
     guidetolerance="10"
     inkscape:pageopacity="0"
     inkscape:pageshadow="2"
     inkscape:window-width="1366"
     inkscape:window-height="705"
     id="namedview1365"
     showgrid="false"
     inkscape:zoom="0.34648232"
     inkscape:cx="616.72947"
     inkscape:cy="518.36735"
     inkscape:window-x="1272"
     inkscape:window-y="-8"
     inkscape:window-maximized="1"
     inkscape:current-layer="Layer_2"
     units="px" />
  <defs
     id="defs1094">
    <style
       id="style1092">.cls-1{fill:#f5ebdd;}.cls-2{fill:#a15842;}.cls-12,.cls-13,.cls-14,.cls-15,.cls-17,.cls-18,.cls-20,.cls-3,.cls-5,.cls-9{fill:none;}.cls-12,.cls-3,.cls-9{stroke:#a15842;}.cls-12,.cls-13,.cls-15,.cls-20,.cls-3,.cls-5,.cls-9{stroke-miterlimit:10;}.cls-13,.cls-15,.cls-18,.cls-20,.cls-3,.cls-5,.cls-9{stroke-width:4px;}.cls-4{fill:#ffbe21;}.cls-5{stroke:#f5ebdd;}.cls-12,.cls-13,.cls-15,.cls-17,.cls-18,.cls-20,.cls-5,.cls-9{stroke-linecap:round;}.cls-6{fill:#ff7235;}.cls-7{fill:#30242a;}.cls-8{fill:#ffb7d5;}.cls-10{fill:#eaa58b;}.cls-11{fill:#3ec1f3;}.cls-12,.cls-17{stroke-width:8px;}.cls-13{stroke:#4756df;}.cls-15,.cls-17{stroke:#30242a;}.cls-16{fill:#4856df;}.cls-17,.cls-18{stroke-linejoin:round;}.cls-18{stroke:#000;}.cls-19{fill:#fff;}.cls-20{stroke:#4856df;}.cls-21{fill:#4756df;}</style>
  </defs>
  <title
     id="title1096">wfh_9</title>
  <g
     id="g1252"
     transform="translate(-1171.777,-494.25234)">
    <path
       id="path1258"
       d="m 1237.93,776.94 a 34.7,34.7 0 0 1 65.54,0 34.72,34.72 0 0 1 30.86,-23.23 86.59,86.59 0 0 0 -10.89,-15.27 l -12.6,-14.11 A 28.71,28.71 0 0 1 1307,691.6 l 10.7,-19.88 v 0 c -3,3 -20.36,19.28 -46.71,19.28 -26.35,0 -43.7,-16.25 -46.7,-19.28 v 0 L 1235,691.6 a 28.73,28.73 0 0 1 -3.86,32.73 l -12.6,14.11 a 86.41,86.41 0 0 0 -10.91,15.3 34.7,34.7 0 0 1 30.3,23.2 z"
       class="cls-21"
       inkscape:connector-curvature="0"
       style="fill:#4756df" />
    <path
       id="path1260"
       d="m 1336.24,797 a 34.72,34.72 0 0 0 -32.77,23.3 34.69,34.69 0 0 0 -65.54,0 34.71,34.71 0 0 0 -41.45,-22.2 86.33,86.33 0 0 0 24.82,58.66 h 99.28 a 86.29,86.29 0 0 0 24.81,-58.53 34.9,34.9 0 0 0 -9.15,-1.23 z"
       class="cls-21"
       inkscape:connector-curvature="0"
       style="fill:#4756df" />
    <path
       id="path1262"
       d="m 1270.94,691 c 26.35,0 43.7,-16.25 46.71,-19.28 h -93.41 c 3,3.03 20.36,19.28 46.7,19.28 z"
       class="cls-7"
       inkscape:connector-curvature="0"
       style="fill:#30242a" />
    <path
       id="path1264"
       d="m 1237.93,820.32 a 34.69,34.69 0 0 1 65.54,0 34.69,34.69 0 0 1 41.92,-22.07 86.35,86.35 0 0 0 -11.06,-44.54 34.72,34.72 0 0 0 -30.86,23.23 34.7,34.7 0 0 0 -65.54,0 34.7,34.7 0 0 0 -30.4,-23.2 86.48,86.48 0 0 0 -11,44.38 34.71,34.71 0 0 1 41.45,22.2 z"
       class="cls-11"
       inkscape:connector-curvature="0"
       style="fill:#3ec1f3" />
    <path
       id="path1266"
       d="m 1277.86,688.27 c 1.9,-11.66 10.57,-57.92 32.36,-83"
       class="cls-15"
       inkscape:connector-curvature="0"
       style="fill:none;stroke:#30242a;stroke-width:4px;stroke-linecap:round;stroke-miterlimit:10" />
    <path
       id="path1268"
       d="m 1267.79,688.6 c -0.14,-13.24 -1.5,-78.3 -14.44,-117.12"
       class="cls-15"
       inkscape:connector-curvature="0"
       style="fill:none;stroke:#30242a;stroke-width:4px;stroke-linecap:round;stroke-miterlimit:10" />
    <ellipse
       id="ellipse1270"
       transform="rotate(-23.75)"
       ry="8.5"
       rx="37.799999"
       cy="1113.7516"
       cx="953.91418"
       class="cls-7"
       style="fill:#30242a" />
    <ellipse
       id="ellipse1272"
       transform="rotate(-53.51)"
       ry="7.3000002"
       rx="20.91"
       cy="1370.1273"
       cx="366.08051"
       class="cls-7"
       style="fill:#30242a" />
    <ellipse
       id="ellipse1274"
       transform="rotate(-8.6)"
       ry="8.0600004"
       rx="45.610001"
       cy="817.05579"
       cx="1110.7916"
       class="cls-7"
       style="fill:#30242a" />
    <path
       id="path1276"
       d="m 1204.28,584.71 v 0.07 a 16.86,16.86 0 0 1 -13.76,30.64 v 0.07 c 20.88,9.38 40.9,10.09 44.72,1.59 3.82,-8.5 -10.08,-22.99 -30.96,-32.37 z"
       class="cls-6"
       inkscape:connector-curvature="0"
       style="fill:#ff7235" />
    <path
       id="path1278"
       d="m 1266,516.72 c -4.45,-1.15 -10.23,5.57 -14.45,16 -5.08,-12.63 -12.45,-21.08 -17.41,-19.44 -4.96,1.64 -5.86,12.81 -2.42,26 -9.58,-5.84 -18.23,-7.8 -21.11,-4.23 -3.68,4.56 3.41,16.38 15.84,26.41 a 70.73,70.73 0 0 0 11.37,7.57 16.85,16.85 0 0 1 26.73,-9.15 71.84,71.84 0 0 0 4.45,-12.46 c 4,-15.5 2.67,-29.23 -3,-30.7 z"
       class="cls-6"
       inkscape:connector-curvature="0"
       style="fill:#ff7235" />
    <path
       id="path1280"
       d="m 1362.9,586.89 c -1.37,-4.38 -10.13,-5.73 -21.19,-3.82 8,-11 11.32,-21.71 7.3,-25.06 -4.02,-3.35 -14,1.81 -23.34,11.69 -0.11,-11.22 -3,-19.59 -7.57,-20.15 -5.81,-0.71 -12.1,11.56 -14,27.41 a 70.93,70.93 0 0 0 -0.41,13.65 16.85,16.85 0 0 1 21.9,17.85 71.57,71.57 0 0 0 12.93,-2.81 c 15.19,-4.77 26.13,-13.17 24.38,-18.76 z"
       class="cls-6"
       inkscape:connector-curvature="0"
       style="fill:#ff7235" />
    <path
       id="path1282"
       d="m 1319.57,593.71 a 16.84,16.84 0 0 0 -15.93,-3.1 c 0.54,7.54 2.45,13.31 5.32,15.46 2.67,2.48 8.87,3.3 16.58,2.39 a 16.83,16.83 0 0 0 -5.97,-14.75 z"
       class="cls-7"
       inkscape:connector-curvature="0"
       style="fill:#30242a" />
    <path
       id="path1284"
       d="M 1248.88,557.11 A 16.82,16.82 0 0 0 1237.83,569 c 6.68,3.53 12.59,5 15.93,3.66 3.52,-1 7.49,-5.78 10.8,-12.81 a 16.83,16.83 0 0 0 -15.68,-2.74 z"
       class="cls-7"
       inkscape:connector-curvature="0"
       style="fill:#30242a" />
    <path
       id="path1286"
       d="m 1206.14,613 a 8.19,8.19 0 0 1 6.72,-14.87 16.85,16.85 0 0 0 -8.61,-13.37 l -13.76,30.64 a 16.82,16.82 0 0 0 15.65,-2.4 z"
       class="cls-1"
       inkscape:connector-curvature="0"
       style="fill:#f5ebdd" />
    <path
       id="path1288"
       d="m 1202.63,602.5 a 8.19,8.19 0 0 0 3.51,10.52 16.82,16.82 0 0 0 6.72,-14.87 8.19,8.19 0 0 0 -10.23,4.35 z"
       class="cls-16"
       inkscape:connector-curvature="0"
       style="fill:#4856df" />
  </g>
  <flowRoot
     xml:space="preserve"
     id="flowRoot1369"
     style="font-style:normal;font-weight:normal;font-size:40px;line-height:1.25;font-family:sans-serif;letter-spacing:0px;word-spacing:0px;fill:#000000;fill-opacity:1;stroke:none"
     transform="translate(0,-830)"><flowRegion
       id="flowRegion1371"><rect
         id="rect1373"
         width="532.65308"
         height="173.46939"
         x="79.591835"
         y="61.224491" /></flowRegion><flowPara
       id="flowPara1375" /></flowRoot></svg>
